{
    "asset" : {
        "generator" : "Khronos glTF Blender I/O v1.3.48",
        "version" : "2.0"
    },
    "scene" : 0,
    "scenes" : [
        {
            "name" : "Scene",
            "nodes" : [
                0,
                1,
                2,
                3,
                4,
                5,
                6,
                7,
                8,
                9
            ]
        }
    ],
    "nodes" : [
        {
            "name" : "Light",
            "rotation" : [
                0.16907575726509094,
                0.7558803558349609,
                -0.27217137813568115,
                0.570947527885437
            ],
            "translation" : [
                4.076245307922363,
                5.903861999511719,
                -1.0054539442062378
            ]
        },
        {
            "name" : "Camera",
            "rotation" : [
                0.483536034822464,
                0.33687159419059753,
                -0.20870360732078552,
                0.7804827094078064
            ],
            "translation" : [
                7.358891487121582,
                4.958309173583984,
                6.925790786743164
            ]
        },
        {
            "name" : "Point",
            "translation" : [
                1.0110478401184082,
                0.3965142071247101,
                1.8195383548736572
            ]
        },
        {
            "name" : "Point.001",
            "translation" : [
                2.530510902404785,
                0.3965142071247101,
                1.761791467666626
            ]
        },
        {
            "mesh" : 0,
            "name" : "Plane.003",
            "scale" : [
                0.31051406264305115,
                0.31051406264305115,
                0.31051406264305115
            ],
            "translation" : [
                -0.7073554396629333,
                0.013486500829458237,
                -0.30848661065101624
            ]
        },
        {
            "mesh" : 1,
            "name" : "Plane.009",
            "scale" : [
                0.31051406264305115,
                0.31051406264305115,
                0.31051406264305115
            ],
            "translation" : [
                -0.08735185861587524,
                0.013486500829458237,
                -0.30848661065101624
            ]
        },
        {
            "mesh" : 2,
            "name" : "Plane.010",
            "scale" : [
                0.31051406264305115,
                0.31051406264305115,
                0.31051406264305115
            ],
            "translation" : [
                0.5316702723503113,
                0.013486500829458237,
                -0.30848661065101624
            ]
        },
        {
            "mesh" : 3,
            "name" : "Plane.011",
            "scale" : [
                0.31051406264305115,
                0.31051406264305115,
                0.31051406264305115
            ],
            "translation" : [
                -0.7073554396629333,
                0.013486500829458237,
                0.3102078437805176
            ]
        },
        {
            "mesh" : 4,
            "name" : "Plane.012",
            "scale" : [
                0.31051406264305115,
                0.31051406264305115,
                0.31051406264305115
            ],
            "translation" : [
                -0.08735185861587524,
                0.013486500829458237,
                0.3102078437805176
            ]
        },
        {
            "mesh" : 5,
            "name" : "Plane.013",
            "scale" : [
                0.31051406264305115,
                0.31051406264305115,
                0.31051406264305115
            ],
            "translation" : [
                0.5316702723503113,
                0.013486500829458237,
                0.3102078437805176
            ]
        }
    ],
    "animations" : [
        {
            "channels" : [
                {
                    "sampler" : 0,
                    "target" : {
                        "node" : 4,
                        "path" : "weights"
                    }
                }
            ],
            "name" : "KeyAction",
            "samplers" : [
                {
                    "input" : 32,
                    "interpolation" : "LINEAR",
                    "output" : 33
                }
            ]
        },
        {
            "channels" : [
                {
                    "sampler" : 0,
                    "target" : {
                        "node" : 5,
                        "path" : "weights"
                    }
                }
            ],
            "name" : "Key.002Action",
            "samplers" : [
                {
                    "input" : 32,
                    "interpolation" : "LINEAR",
                    "output" : 34
                }
            ]
        },
        {
            "channels" : [
                {
                    "sampler" : 0,
                    "target" : {
                        "node" : 6,
                        "path" : "weights"
                    }
                }
            ],
            "name" : "Key.008Action",
            "samplers" : [
                {
                    "input" : 32,
                    "interpolation" : "LINEAR",
                    "output" : 35
                }
            ]
        },
        {
            "channels" : [
                {
                    "sampler" : 0,
                    "target" : {
                        "node" : 7,
                        "path" : "weights"
                    }
                }
            ],
            "name" : "Key.009Action",
            "samplers" : [
                {
                    "input" : 32,
                    "interpolation" : "LINEAR",
                    "output" : 36
                }
            ]
        },
        {
            "channels" : [
                {
                    "sampler" : 0,
                    "target" : {
                        "node" : 8,
                        "path" : "weights"
                    }
                }
            ],
            "name" : "Key.010Action",
            "samplers" : [
                {
                    "input" : 32,
                    "interpolation" : "LINEAR",
                    "output" : 37
                }
            ]
        },
        {
            "channels" : [
                {
                    "sampler" : 0,
                    "target" : {
                        "node" : 9,
                        "path" : "weights"
                    }
                }
            ],
            "name" : "Key.011Action",
            "samplers" : [
                {
                    "input" : 32,
                    "interpolation" : "LINEAR",
                    "output" : 38
                }
            ]
        }
    ],
    "materials" : [
        {
            "doubleSided" : true,
            "emissiveFactor" : [
                0,
                0,
                0
            ],
            "name" : "Material.001",
            "pbrMetallicRoughness" : {
                "baseColorFactor" : [
                    0.6795427203178406,
                    0.025186728686094284,
                    0.12213881313800812,
                    1
                ],
                "metallicFactor" : 0,
                "roughnessFactor" : 0.5
            }
        }
    ],
    "meshes" : [
        {
            "extras" : {
                "targetNames" : [
                    "Key 1"
                ]
            },
            "name" : "Plane.004",
            "primitives" : [
                {
                    "attributes" : {
                        "POSITION" : 0,
                        "NORMAL" : 1,
                        "TEXCOORD_0" : 2
                    },
                    "indices" : 3,
                    "material" : 0,
                    "targets" : [
                        {
                            "POSITION" : 4,
                            "NORMAL" : 5
                        }
                    ]
                }
            ],
            "weights" : [
                0
            ]
        },
        {
            "extras" : {
                "targetNames" : [
                    "Key 1"
                ]
            },
            "name" : "Plane.010",
            "primitives" : [
                {
                    "attributes" : {
                        "POSITION" : 6,
                        "NORMAL" : 7,
                        "TEXCOORD_0" : 8
                    },
                    "indices" : 3,
                    "material" : 0,
                    "targets" : [
                        {
                            "POSITION" : 9,
                            "NORMAL" : 10
                        }
                    ]
                }
            ],
            "weights" : [
                0
            ]
        },
        {
            "extras" : {
                "targetNames" : [
                    "Key 1"
                ]
            },
            "name" : "Plane.011",
            "primitives" : [
                {
                    "attributes" : {
                        "POSITION" : 11,
                        "NORMAL" : 12,
                        "TEXCOORD_0" : 13
                    },
                    "indices" : 3,
                    "material" : 0,
                    "targets" : [
                        {
                            "POSITION" : 14,
                            "NORMAL" : 15
                        }
                    ]
                }
            ],
            "weights" : [
                0
            ]
        },
        {
            "extras" : {
                "targetNames" : [
                    "Key 1"
                ]
            },
            "name" : "Plane.012",
            "primitives" : [
                {
                    "attributes" : {
                        "POSITION" : 16,
                        "NORMAL" : 17,
                        "TEXCOORD_0" : 18
                    },
                    "indices" : 19,
                    "material" : 0,
                    "targets" : [
                        {
                            "POSITION" : 20,
                            "NORMAL" : 21
                        }
                    ]
                }
            ],
            "weights" : [
                0
            ]
        },
        {
            "extras" : {
                "targetNames" : [
                    "Key 1"
                ]
            },
            "name" : "Plane.013",
            "primitives" : [
                {
                    "attributes" : {
                        "POSITION" : 22,
                        "NORMAL" : 23,
                        "TEXCOORD_0" : 24
                    },
                    "indices" : 3,
                    "material" : 0,
                    "targets" : [
                        {
                            "POSITION" : 25,
                            "NORMAL" : 26
                        }
                    ]
                }
            ],
            "weights" : [
                0
            ]
        },
        {
            "extras" : {
                "targetNames" : [
                    "Key 1"
                ]
            },
            "name" : "Plane.014",
            "primitives" : [
                {
                    "attributes" : {
                        "POSITION" : 27,
                        "NORMAL" : 28,
                        "TEXCOORD_0" : 29
                    },
                    "indices" : 3,
                    "material" : 0,
                    "targets" : [
                        {
                            "POSITION" : 30,
                            "NORMAL" : 31
                        }
                    ]
                }
            ],
            "weights" : [
                0
            ]
        }
    ],
    "accessors" : [
        {
            "bufferView" : 0,
            "componentType" : 5126,
            "count" : 1536,
            "max" : [
                1,
                0,
                1
            ],
            "min" : [
                -1,
                0,
                -1
            ],
            "type" : "VEC3"
        },
        {
            "bufferView" : 1,
            "componentType" : 5126,
            "count" : 1536,
            "type" : "VEC3"
        },
        {
            "bufferView" : 2,
            "componentType" : 5126,
            "count" : 1536,
            "type" : "VEC2"
        },
        {
            "bufferView" : 3,
            "componentType" : 5123,
            "count" : 6000,
            "type" : "SCALAR"
        },
        {
            "bufferView" : 4,
            "componentType" : 5126,
            "count" : 1536,
            "max" : [
                0,
                1.193726658821106,
                0
            ],
            "min" : [
                0,
                0,
                0
            ],
            "type" : "VEC3"
        },
        {
            "bufferView" : 5,
            "componentType" : 5126,
            "count" : 1536,
            "type" : "VEC3"
        },
        {
            "bufferView" : 6,
            "componentType" : 5126,
            "count" : 1536,
            "max" : [
                1,
                0,
                1
            ],
            "min" : [
                -1,
                0,
                -1
            ],
            "type" : "VEC3"
        },
        {
            "bufferView" : 7,
            "componentType" : 5126,
            "count" : 1536,
            "type" : "VEC3"
        },
        {
            "bufferView" : 8,
            "componentType" : 5126,
            "count" : 1536,
            "type" : "VEC2"
        },
        {
            "bufferView" : 9,
            "componentType" : 5126,
            "count" : 1536,
            "max" : [
                0,
                0,
                0
            ],
            "min" : [
                0,
                -1.210604190826416,
                0
            ],
            "type" : "VEC3"
        },
        {
            "bufferView" : 10,
            "componentType" : 5126,
            "count" : 1536,
            "type" : "VEC3"
        },
        {
            "bufferView" : 11,
            "componentType" : 5126,
            "count" : 1536,
            "max" : [
                1,
                0,
                1
            ],
            "min" : [
                -1,
                0,
                -1
            ],
            "type" : "VEC3"
        },
        {
            "bufferView" : 12,
            "componentType" : 5126,
            "count" : 1536,
            "type" : "VEC3"
        },
        {
            "bufferView" : 13,
            "componentType" : 5126,
            "count" : 1536,
            "type" : "VEC2"
        },
        {
            "bufferView" : 14,
            "componentType" : 5126,
            "count" : 1536,
            "max" : [
                0,
                1.1416171789169312,
                0
            ],
            "min" : [
                0,
                0,
                0
            ],
            "type" : "VEC3"
        },
        {
            "bufferView" : 15,
            "componentType" : 5126,
            "count" : 1536,
            "type" : "VEC3"
        },
        {
            "bufferView" : 16,
            "componentType" : 5126,
            "count" : 3113,
            "max" : [
                1,
                0,
                1
            ],
            "min" : [
                -1,
                0,
                -1
            ],
            "type" : "VEC3"
        },
        {
            "bufferView" : 17,
            "componentType" : 5126,
            "count" : 3113,
            "type" : "VEC3"
        },
        {
            "bufferView" : 18,
            "componentType" : 5126,
            "count" : 3113,
            "type" : "VEC2"
        },
        {
            "bufferView" : 19,
            "componentType" : 5123,
            "count" : 6000,
            "type" : "SCALAR"
        },
        {
            "bufferView" : 20,
            "componentType" : 5126,
            "count" : 3113,
            "max" : [
                0,
                0,
                0
            ],
            "min" : [
                0,
                -1.3081032037734985,
                0
            ],
            "type" : "VEC3"
        },
        {
            "bufferView" : 21,
            "componentType" : 5126,
            "count" : 3113,
            "type" : "VEC3"
        },
        {
            "bufferView" : 22,
            "componentType" : 5126,
            "count" : 1536,
            "max" : [
                1,
                0,
                1
            ],
            "min" : [
                -1,
                0,
                -1
            ],
            "type" : "VEC3"
        },
        {
            "bufferView" : 23,
            "componentType" : 5126,
            "count" : 1536,
            "type" : "VEC3"
        },
        {
            "bufferView" : 24,
            "componentType" : 5126,
            "count" : 1536,
            "type" : "VEC2"
        },
        {
            "bufferView" : 25,
            "componentType" : 5126,
            "count" : 1536,
            "max" : [
                0,
                0.9257519245147705,
                0
            ],
            "min" : [
                0,
                0,
                0
            ],
            "type" : "VEC3"
        },
        {
            "bufferView" : 26,
            "componentType" : 5126,
            "count" : 1536,
            "type" : "VEC3"
        },
        {
            "bufferView" : 27,
            "componentType" : 5126,
            "count" : 1536,
            "max" : [
                1,
                0,
                1
            ],
            "min" : [
                -1,
                0,
                -1
            ],
            "type" : "VEC3"
        },
        {
            "bufferView" : 28,
            "componentType" : 5126,
            "count" : 1536,
            "type" : "VEC3"
        },
        {
            "bufferView" : 29,
            "componentType" : 5126,
            "count" : 1536,
            "type" : "VEC2"
        },
        {
            "bufferView" : 30,
            "componentType" : 5126,
            "count" : 1536,
            "max" : [
                0,
                0,
                0
            ],
            "min" : [
                0,
                -1.1254782676696777,
                0
            ],
            "type" : "VEC3"
        },
        {
            "bufferView" : 31,
            "componentType" : 5126,
            "count" : 1536,
            "type" : "VEC3"
        },
        {
            "bufferView" : 32,
            "componentType" : 5126,
            "count" : 101,
            "max" : [
                4.166666666666667
            ],
            "min" : [
                0
            ],
            "type" : "SCALAR"
        },
        {
            "bufferView" : 33,
            "componentType" : 5126,
            "count" : 101,
            "type" : "SCALAR"
        },
        {
            "bufferView" : 34,
            "componentType" : 5126,
            "count" : 101,
            "type" : "SCALAR"
        },
        {
            "bufferView" : 35,
            "componentType" : 5126,
            "count" : 101,
            "type" : "SCALAR"
        },
        {
            "bufferView" : 36,
            "componentType" : 5126,
            "count" : 101,
            "type" : "SCALAR"
        },
        {
            "bufferView" : 37,
            "componentType" : 5126,
            "count" : 101,
            "type" : "SCALAR"
        },
        {
            "bufferView" : 38,
            "componentType" : 5126,
            "count" : 101,
            "type" : "SCALAR"
        }
    ],
    "bufferViews" : [
        {
            "buffer" : 0,
            "byteLength" : 18432,
            "byteOffset" : 0
        },
        {
            "buffer" : 0,
            "byteLength" : 18432,
            "byteOffset" : 18432
        },
        {
            "buffer" : 0,
            "byteLength" : 12288,
            "byteOffset" : 36864
        },
        {
            "buffer" : 0,
            "byteLength" : 12000,
            "byteOffset" : 49152
        },
        {
            "buffer" : 0,
            "byteLength" : 18432,
            "byteOffset" : 61152
        },
        {
            "buffer" : 0,
            "byteLength" : 18432,
            "byteOffset" : 79584
        },
        {
            "buffer" : 0,
            "byteLength" : 18432,
            "byteOffset" : 98016
        },
        {
            "buffer" : 0,
            "byteLength" : 18432,
            "byteOffset" : 116448
        },
        {
            "buffer" : 0,
            "byteLength" : 12288,
            "byteOffset" : 134880
        },
        {
            "buffer" : 0,
            "byteLength" : 18432,
            "byteOffset" : 147168
        },
        {
            "buffer" : 0,
            "byteLength" : 18432,
            "byteOffset" : 165600
        },
        {
            "buffer" : 0,
            "byteLength" : 18432,
            "byteOffset" : 184032
        },
        {
            "buffer" : 0,
            "byteLength" : 18432,
            "byteOffset" : 202464
        },
        {
            "buffer" : 0,
            "byteLength" : 12288,
            "byteOffset" : 220896
        },
        {
            "buffer" : 0,
            "byteLength" : 18432,
            "byteOffset" : 233184
        },
        {
            "buffer" : 0,
            "byteLength" : 18432,
            "byteOffset" : 251616
        },
        {
            "buffer" : 0,
            "byteLength" : 37356,
            "byteOffset" : 270048
        },
        {
            "buffer" : 0,
            "byteLength" : 37356,
            "byteOffset" : 307404
        },
        {
            "buffer" : 0,
            "byteLength" : 24904,
            "byteOffset" : 344760
        },
        {
            "buffer" : 0,
            "byteLength" : 12000,
            "byteOffset" : 369664
        },
        {
            "buffer" : 0,
            "byteLength" : 37356,
            "byteOffset" : 381664
        },
        {
            "buffer" : 0,
            "byteLength" : 37356,
            "byteOffset" : 419020
        },
        {
            "buffer" : 0,
            "byteLength" : 18432,
            "byteOffset" : 456376
        },
        {
            "buffer" : 0,
            "byteLength" : 18432,
            "byteOffset" : 474808
        },
        {
            "buffer" : 0,
            "byteLength" : 12288,
            "byteOffset" : 493240
        },
        {
            "buffer" : 0,
            "byteLength" : 18432,
            "byteOffset" : 505528
        },
        {
            "buffer" : 0,
            "byteLength" : 18432,
            "byteOffset" : 523960
        },
        {
            "buffer" : 0,
            "byteLength" : 18432,
            "byteOffset" : 542392
        },
        {
            "buffer" : 0,
            "byteLength" : 18432,
            "byteOffset" : 560824
        },
        {
            "buffer" : 0,
            "byteLength" : 12288,
            "byteOffset" : 579256
        },
        {
            "buffer" : 0,
            "byteLength" : 18432,
            "byteOffset" : 591544
        },
        {
            "buffer" : 0,
            "byteLength" : 18432,
            "byteOffset" : 609976
        },
        {
            "buffer" : 0,
            "byteLength" : 404,
            "byteOffset" : 628408
        },
        {
            "buffer" : 0,
            "byteLength" : 404,
            "byteOffset" : 628812
        },
        {
            "buffer" : 0,
            "byteLength" : 404,
            "byteOffset" : 629216
        },
        {
            "buffer" : 0,
            "byteLength" : 404,
            "byteOffset" : 629620
        },
        {
            "buffer" : 0,
            "byteLength" : 404,
            "byteOffset" : 630024
        },
        {
            "buffer" : 0,
            "byteLength" : 404,
            "byteOffset" : 630428
        },
        {
            "buffer" : 0,
            "byteLength" : 404,
            "byteOffset" : 630832
        }
    ],
    "buffers" : [
        {
            "byteLength" : 631236,
            "uri" : "data:application/octet-stream;base64,"
        }
    ]
}
